<?xml version="1.0" encoding="UTF-8"?>
<svg width="1440" height="800" viewBox="0 0 1440 800" fill="none" xmlns="http://www.w3.org/2000/svg">
  <!-- Background -->
  <rect width="1440" height="800" fill="#33183b"/>
  
  <!-- Distant mountains -->
  <path d="M0 500L100 470C200 440 400 380 600 350C800 320 1000 320 1200 340C1400 360 1600 400 1700 420L1800 440V800H1700C1600 800 1400 800 1200 800C1000 800 800 800 600 800C400 800 200 800 100 800H0V500Z" fill="#57264a" opacity="0.7"/>
  
  <!-- Mid mountains -->
  <path d="M0 550L100 530C200 510 400 470 600 460C800 450 1000 470 1200 500C1400 530 1600 570 1700 590L1800 610V800H1700C1600 800 1400 800 1200 800C1000 800 800 800 600 800C400 800 200 800 100 800H0V550Z" fill="#8a1538" opacity="0.8"/>
  
  <!-- Foreground mountains -->
  <path d="M0 650L100 640C200 630 400 610 600 610C800 610 1000 630 1200 650C1400 670 1600 690 1700 700L1800 710V800H1700C1600 800 1400 800 1200 800C1000 800 800 800 600 800C400 800 200 800 100 800H0V650Z" fill="#650f29" opacity="0.9"/>
  
  <!-- Foreground silhouette -->
  <path d="M0 720L100 715C200 710 400 700 600 700C800 700 1000 710 1200 720C1400 730 1600 740 1700 745L1800 750V800H1700C1600 800 1400 800 1200 800C1000 800 800 800 600 800C400 800 200 800 100 800H0V720Z" fill="#2b0812" opacity="1"/>
</svg>