<?xml version="1.0" encoding="UTF-8"?>
<svg width="800" height="600" viewBox="0 0 800 600" fill="none" xmlns="http://www.w3.org/2000/svg">
  <!-- Background -->
  <rect width="800" height="600" fill="#2e1f36"/>
  
  <!-- Sky gradient -->
  <rect width="800" height="500" fill="url(#skyGradient)"/>
  
  <!-- Ground -->
  <rect y="500" width="800" height="100" fill="#2c2824"/>
  
  <!-- Aspire Tower / The Torch -->
  <path d="M380 500V120C380 100 400 80 400 80C400 80 420 100 420 120V500H380Z" fill="#e0d2c5"/>
  
  <!-- Tower details -->
  <path d="M380 500V120C380 100 400 80 400 80L400 500H380Z" fill="#c8bbb0"/>
  
  <!-- The torch/flame on top -->
  <path d="M385 90C385 90 395 50 400 45C405 50 415 90 415 90L385 90Z" fill="#e5773f"/>
  <path d="M385 90C385 90 395 60 400 55C400 55 400 55 400 90L385 90Z" fill="#bf6032"/>
  
  <!-- Windows/details down the tower -->
  <rect x="390" y="130" width="20" height="5" fill="#8a827a"/>
  <rect x="390" y="150" width="20" height="5" fill="#8a827a"/>
  <rect x="390" y="170" width="20" height="5" fill="#8a827a"/>
  <rect x="390" y="190" width="20" height="5" fill="#8a827a"/>
  <rect x="390" y="210" width="20" height="5" fill="#8a827a"/>
  <rect x="390" y="230" width="20" height="5" fill="#8a827a"/>
  <rect x="390" y="250" width="20" height="5" fill="#8a827a"/>
  <rect x="390" y="270" width="20" height="5" fill="#8a827a"/>
  <rect x="390" y="290" width="20" height="5" fill="#8a827a"/>
  <rect x="390" y="310" width="20" height="5" fill="#8a827a"/>
  <rect x="390" y="330" width="20" height="5" fill="#8a827a"/>
  <rect x="390" y="350" width="20" height="5" fill="#8a827a"/>
  <rect x="390" y="370" width="20" height="5" fill="#8a827a"/>
  <rect x="390" y="390" width="20" height="5" fill="#8a827a"/>
  <rect x="390" y="410" width="20" height="5" fill="#8a827a"/>
  <rect x="390" y="430" width="20" height="5" fill="#8a827a"/>
  <rect x="390" y="450" width="20" height="5" fill="#8a827a"/>
  <rect x="390" y="470" width="20" height="5" fill="#8a827a"/>
  
  <!-- Base structure -->
  <path d="M350 500V470H450V500H350Z" fill="#a69e95"/>
  
  <!-- Stadium complex surrounding the tower -->
  <path d="M150 500C150 480 200 450 300 450H500C600 450 650 480 650 500H150Z" fill="#5d5852"/>
  
  <!-- Stadium details -->
  <path d="M200 500C200 490 230 470 300 470H500C570 470 600 490 600 500H200Z" fill="#4e4a45"/>
  <path d="M250 500C250 495 270 480 300 480H500C530 480 550 495 550 500H250Z" fill="#3d3935"/>
  
  <!-- Night sky -->
  <circle cx="100" cy="100" r="2" fill="white"/>
  <circle cx="200" cy="150" r="1.5" fill="white"/>
  <circle cx="300" cy="80" r="2" fill="white"/>
  <circle cx="500" cy="90" r="1.5" fill="white"/>
  <circle cx="600" cy="70" r="1" fill="white"/>
  <circle cx="700" cy="130" r="2" fill="white"/>
  <circle cx="750" cy="60" r="1" fill="white"/>
  
  <!-- Gradients -->
  <defs>
    <linearGradient id="skyGradient" x1="400" y1="0" x2="400" y2="500" gradientUnits="userSpaceOnUse">
      <stop offset="0" stop-color="#0f1a30"/>
      <stop offset="1" stop-color="#2e2a3d"/>
    </linearGradient>
  </defs>
</svg>