<?xml version="1.0" encoding="UTF-8"?>
<svg width="800" height="600" viewBox="0 0 800 600" fill="none" xmlns="http://www.w3.org/2000/svg">
  <!-- Background -->
  <rect width="800" height="600" fill="#2e1f36"/>
  
  <!-- Sky gradient -->
  <rect width="800" height="400" fill="url(#skyGradient)"/>
  
  <!-- Water -->
  <rect y="400" width="800" height="200" fill="#3a6182"/>
  
  <!-- Museum of Islamic Art -->
  <!-- Main structure -->
  <path d="M350 150L450 150L450 400L350 400L350 150Z" fill="#e8e0d8"/>
  <path d="M300 200L350 150L450 150L500 200L500 400L300 400L300 200Z" fill="#d1c9c1"/>
  <path d="M250 250L300 200L500 200L550 250L550 400L250 400L250 250Z" fill="#e8e0d8"/>
  
  <!-- Architectural details -->
  <path d="M380 150L420 150L420 100L400 80L380 100L380 150Z" fill="#c1b9b1"/>
  <path d="M380 180L420 180L420 150L380 150L380 180Z" fill="#a69e96"/>
  
  <!-- Windows -->
  <rect x="320" y="250" width="20" height="40" fill="#284258"/>
  <rect x="360" y="250" width="20" height="40" fill="#284258"/>
  <rect x="400" y="250" width="20" height="40" fill="#284258"/>
  <rect x="440" y="250" width="20" height="40" fill="#284258"/>
  <rect x="480" y="250" width="20" height="40" fill="#284258"/>
  
  <rect x="320" y="310" width="20" height="40" fill="#284258"/>
  <rect x="360" y="310" width="20" height="40" fill="#284258"/>
  <rect x="400" y="310" width="20" height="40" fill="#284258"/>
  <rect x="440" y="310" width="20" height="40" fill="#284258"/>
  <rect x="480" y="310" width="20" height="40" fill="#284258"/>
  
  <!-- Water reflections -->
  <path opacity="0.3" d="M250 400L550 400L550 500L250 500L250 400Z" fill="#e8e0d8"/>
  
  <!-- City lights on the horizon -->
  <rect x="100" y="370" width="2" height="10" fill="#f5d76a"/>
  <rect x="120" y="360" width="2" height="20" fill="#f5d76a"/>
  <rect x="150" y="365" width="3" height="15" fill="#f5d76a"/>
  <rect x="180" y="380" width="2" height="5" fill="#f5d76a"/>
  <rect x="600" y="370" width="2" height="10" fill="#f5d76a"/>
  <rect x="630" y="360" width="2" height="20" fill="#f5d76a"/>
  <rect x="670" y="365" width="3" height="15" fill="#f5d76a"/>
  <rect x="700" y="380" width="2" height="5" fill="#f5d76a"/>
  
  <!-- Night sky -->
  <circle cx="100" cy="100" r="2" fill="white"/>
  <circle cx="200" cy="150" r="1.5" fill="white"/>
  <circle cx="300" cy="80" r="2" fill="white"/>
  <circle cx="500" cy="90" r="1.5" fill="white"/>
  <circle cx="600" cy="70" r="1" fill="white"/>
  <circle cx="700" cy="130" r="2" fill="white"/>
  <circle cx="750" cy="60" r="1" fill="white"/>
  
  <!-- Gradients -->
  <defs>
    <linearGradient id="skyGradient" x1="400" y1="0" x2="400" y2="400" gradientUnits="userSpaceOnUse">
      <stop offset="0" stop-color="#0a1a32"/>
      <stop offset="1" stop-color="#2a4060"/>
    </linearGradient>
  </defs>
</svg>